<mxfile host="app.diagrams.net" modified="2023-04-02T16:53:40.791Z" agent="5.0 (Windows NT 10.0; Win64; x64) AppleWebKit/537.36 (KHTML, like Gecko) Chrome/111.0.0.0 Safari/537.36 Edg/111.0.1661.62" etag="DaKOSnKb0cXR7ukgkVBw" version="20.0.1" type="github">
  <diagram id="IbRpqRdtqss6PkcT7pvb" name="第 1 页">
    <mxGraphModel dx="1037" dy="588" grid="0" gridSize="10" guides="1" tooltips="1" connect="1" arrows="1" fold="1" page="1" pageScale="1" pageWidth="827" pageHeight="1169" math="0" shadow="0">
      <root>
        <mxCell id="0" />
        <mxCell id="1" parent="0" />
        <mxCell id="4mvM3D7XAJZySyCaRPQz-1" value="&lt;div&gt;被测物体场域&lt;/div&gt;&lt;div&gt;模型&lt;/div&gt;" style="rounded=1;whiteSpace=wrap;html=1;" vertex="1" parent="1">
          <mxGeometry x="330" y="280" width="120" height="60" as="geometry" />
        </mxCell>
        <mxCell id="4mvM3D7XAJZySyCaRPQz-2" value="&lt;div&gt;边界电极上的电&lt;/div&gt;&lt;div&gt;位（或电压）&lt;/div&gt;" style="rounded=0;whiteSpace=wrap;html=1;" vertex="1" parent="1">
          <mxGeometry x="140" y="280.01" width="120" height="60" as="geometry" />
        </mxCell>
        <mxCell id="4mvM3D7XAJZySyCaRPQz-3" value="&lt;div&gt;已知物体内部电&lt;/div&gt;&lt;div&gt;阻抗分布情况&lt;/div&gt;" style="rounded=0;whiteSpace=wrap;html=1;" vertex="1" parent="1">
          <mxGeometry x="530" y="276.88" width="120" height="60" as="geometry" />
        </mxCell>
        <mxCell id="4mvM3D7XAJZySyCaRPQz-4" value="注入激励电流" style="rounded=0;whiteSpace=wrap;html=1;" vertex="1" parent="1">
          <mxGeometry x="330" y="160" width="120" height="60" as="geometry" />
        </mxCell>
        <mxCell id="4mvM3D7XAJZySyCaRPQz-5" value="" style="html=1;shadow=0;dashed=0;align=center;verticalAlign=middle;shape=mxgraph.arrows2.arrow;dy=0.65;dx=27.6;direction=south;notch=0;" vertex="1" parent="1">
          <mxGeometry x="368.75" y="220" width="42.5" height="60" as="geometry" />
        </mxCell>
        <mxCell id="4mvM3D7XAJZySyCaRPQz-8" value="" style="html=1;shadow=0;dashed=0;align=center;verticalAlign=middle;shape=mxgraph.arrows2.arrow;dy=0.65;dx=27.6;direction=south;notch=0;rotation=-90;" vertex="1" parent="1">
          <mxGeometry x="469.07" y="270.94" width="42.5" height="78.12" as="geometry" />
        </mxCell>
        <mxCell id="4mvM3D7XAJZySyCaRPQz-10" value="" style="html=1;shadow=0;dashed=0;align=center;verticalAlign=middle;shape=mxgraph.arrows2.arrow;dy=0.65;dx=27.6;direction=south;notch=0;rotation=-90;" vertex="1" parent="1">
          <mxGeometry x="275" y="275.02" width="42.5" height="69.99" as="geometry" />
        </mxCell>
      </root>
    </mxGraphModel>
  </diagram>
</mxfile>
